<?xml version="1.0" encoding="UTF-8" standalone="no"?>
<!-- Generator: Adobe Illustrator 16.0.0, SVG Export Plug-In . SVG Version: 6.00 Build 0)  -->

<svg
   xmlns:dc="http://purl.org/dc/elements/1.1/"
   xmlns:cc="http://creativecommons.org/ns#"
   xmlns:rdf="http://www.w3.org/1999/02/22-rdf-syntax-ns#"
   xmlns:svg="http://www.w3.org/2000/svg"
   xmlns="http://www.w3.org/2000/svg"
   xmlns:xlink="http://www.w3.org/1999/xlink"
   xmlns:sodipodi="http://sodipodi.sourceforge.net/DTD/sodipodi-0.dtd"
   xmlns:inkscape="http://www.inkscape.org/namespaces/inkscape"
   version="1.1"
   id="Ebene_1"
   x="0px"
   y="0px"
   width="226.81799"
   height="57.560997"
   viewBox="0 0 226.818 57.560998"
   enable-background="new 0 0 297.641 99.21"
   xml:space="preserve"
   inkscape:version="0.48.4 r9939"
   sodipodi:docname="CFG_Muenster.svg"><metadata
     id="metadata59"><rdf:RDF><cc:Work
         rdf:about=""><dc:format>image/svg+xml</dc:format><dc:type
           rdf:resource="http://purl.org/dc/dcmitype/StillImage" /></cc:Work></rdf:RDF></metadata><defs
     id="defs57" /><sodipodi:namedview
     pagecolor="#ffffff"
     bordercolor="#666666"
     borderopacity="1"
     objecttolerance="10"
     gridtolerance="10"
     guidetolerance="10"
     inkscape:pageopacity="0"
     inkscape:pageshadow="2"
     inkscape:window-width="1600"
     inkscape:window-height="843"
     id="namedview55"
     showgrid="false"
     fit-margin-top="0"
     fit-margin-left="0"
     fit-margin-right="0"
     fit-margin-bottom="0"
     inkscape:zoom="1.0751207"
     inkscape:cx="113.84775"
     inkscape:cy="30.63"
     inkscape:window-x="0"
     inkscape:window-y="0"
     inkscape:window-maximized="1"
     inkscape:current-layer="Ebene_1" /><path
     d="m 137.299,8.113999 c -0.786,-0.507 -1.369,-0.684 -2.054,-0.684 -1.217,0 -1.875,0.761 -1.875,2.41 v 0.834 h 4.967 v 1.928 h -4.967 v 10.849 h -2.131 v -10.849 h -3.601 v -1.928 h 3.601 v -0.785 c 0,-3.093 1.495,-4.386 3.929,-4.386 1.167,0 1.952,0.305 2.662,0.735 l -0.531,1.876 z"
     id="path3"
     inkscape:connector-curvature="0" /><path
     d="m 145.439,21.726999 c 2.61,0 4.105,-2.206 4.105,-4.665 0,-2.458 -1.495,-4.664 -4.105,-4.664 -2.61,0 -4.106,2.206 -4.106,4.664 0,2.459 1.496,4.665 4.106,4.665 m 0,-11.256 c 3.901,0 6.286,3.068 6.286,6.592 0,3.524 -2.385,6.591 -6.286,6.591 -3.903,0 -6.287,-3.067 -6.287,-6.591 0,-3.525 2.384,-6.592 6.287,-6.592"
     id="path5"
     inkscape:connector-curvature="0" /><path
     d="m 163.229,14.729999 c -0.178,-1.47 -0.938,-2.331 -2.458,-2.331 -2.23,0 -4.334,2.103 -4.334,6.439 v 4.612 h -2.13 v -12.776 h 2.13 v 2.358 c 0.988,-1.547 2.584,-2.562 4.714,-2.562 2.536,0 4.056,1.522 4.209,4.26 h -2.131 z"
     id="path7"
     inkscape:connector-curvature="0" /><polygon
     points="70.595,72.337 71.625,72.337 72.504,72.337 72.504,27.572 66.909,27.572 66.909,28.268 66.909,72.337 "
     id="polygon9"
     style="fill:#d57a75"
     transform="translate(-36.833,-22.674001)" /><g
     id="g11"
     transform="translate(-36.833,-22.674001)"><path
       d="m 89.102,76.535 c 0.384,0 0.889,-0.348 0.889,-0.729 v -52.43 c 0,-0.383 -0.505,-0.698 -0.889,-0.698 H 71.625 c -0.384,0 -0.519,0.157 -0.519,0.349 v 1.048 3.496 c 0,0.384 0.135,0.702 0.519,0.702 h 11.884 c 0.385,0 0.888,0.311 0.888,0.696 v 41.247 c 0,0.383 -0.503,0.725 -0.888,0.725 H 71.625 c -0.384,0 -0.519,0.131 -0.519,0.324 v 1.047 3.496 c 0,0.383 0.135,0.73 0.519,0.73 h 17.478 v -0.003 z"
       id="path13"
       inkscape:connector-curvature="0"
       style="fill:#ce5a4e" /></g><polygon
     points="101.684,72.337 102.582,72.337 102.582,27.572 96.986,27.572 96.986,28.268 96.986,72.337 "
     id="polygon15"
     style="fill:#8bbd97"
     transform="translate(-36.833,-22.674001)" /><g
     id="g17"
     transform="translate(-36.833,-22.674001)"><path
       d="m 101.882,76.503 v -5.592 c 7.694,0 13.063,-9.565 13.063,-21.322 0,-11.757 -5.369,-21.322 -13.063,-21.322 v -5.593 c 10.492,0 18.656,12.074 18.656,26.915 0,14.841 -8.164,26.914 -18.656,26.914"
       id="path19"
       inkscape:connector-curvature="0"
       style="fill:#4ea15a" /><path
       d="m 43.827,59.307 v 7.713 2.48 c 0,4.185 2.678,7.035 6.909,7.035 h 1.189 3.426 4.04 c 0.192,0 0.523,-0.348 0.523,-0.729 V 71.61 c 0,-0.383 -0.489,-0.672 -0.873,-0.672 h -4.017 -2.05 -1.271 c -1.81,0 -2.282,-0.771 -2.282,-2.838 v -1.229 -6.729 -4.104 c 0,-4.218 -1.715,-5.771 -3.803,-6.536 2.088,-0.763 3.803,-2.315 3.803,-6.53 V 40.058 32.664 30.91 c 0,-2.033 0.405,-2.64 2.282,-2.64 h 1.58 2.004 4.103 c 0.192,0 0.523,-0.318 0.523,-0.702 v -4.195 c 0,-0.383 -0.489,-0.698 -0.873,-0.698 h -3.36 -3.17 -1.773 c -4.231,0 -6.909,2.74 -6.909,6.834 v 2.196 9.146 c 0,0 -0.139,2.1 -0.24,2.814 -0.265,1.891 -2.582,3.511 -4.017,3.491 h -2.199 c -0.385,0 -0.539,0.3 -0.539,0.685 v 4.196 c 0,0.383 0.154,0.715 0.539,0.715 h 2.008 c 1.832,-0.025 4.146,1.518 4.321,3.819 0.052,0.669 0.126,2.736 0.126,2.736"
       id="path21"
       inkscape:connector-curvature="0"
       style="fill:#33a1df" /><path
       d="M 71.625,22.676 H 69.644 67.43 c -0.385,0 -0.521,0.315 -0.521,0.699 v 1.291 2.903 0.703 h 0.521 4.194 0.88 v -0.703 -4.194 -0.699 h -0.879 z"
       id="path23"
       inkscape:connector-curvature="0"
       style="fill:#bd3c38" /><path
       d="m 66.909,71.611 v 1.98 2.213 c 0,0.385 0.137,0.73 0.521,0.73 h 1.292 2.902 0.879 v -0.73 -4.193 -0.672 H 71.624 67.43 66.909 v 0.672 z"
       id="path25"
       inkscape:connector-curvature="0"
       style="fill:#bd3c38" /><path
       d="M 101.684,22.676 H 99.703 97.49 c -0.384,0 -0.504,0.315 -0.504,0.699 v 1.291 2.903 0.703 h 0.504 4.194 0.897 v -0.703 -4.194 -0.699 h -0.897 z"
       id="path27"
       inkscape:connector-curvature="0"
       style="fill:#27954e" /><path
       d="m 96.986,71.611 v 1.98 2.213 c 0,0.385 0.12,0.73 0.504,0.73 h 1.291 2.903 0.897 v -0.73 -4.193 -0.672 h -0.897 -4.194 -0.504 v 0.672 z"
       id="path29"
       inkscape:connector-curvature="0"
       style="fill:#27954e" /><path
       d="m 131.959,59.307 v 7.713 2.48 c 0,4.185 2.627,7.035 6.859,7.035 h 1.189 3.426 4.04 c 0.192,0 0.572,-0.348 0.572,-0.729 V 71.61 c 0,-0.383 -0.538,-0.672 -0.922,-0.672 h -4.018 -2.05 -1.269 c -1.81,0 -2.232,-0.771 -2.232,-2.838 v -1.229 -6.729 -4.104 c 0,-1.357 -0.398,-2.586 -0.708,-3.287 h -9.388 c 2.579,0.701 3.682,1.623 4.207,3.869 0.264,1.12 0.294,2.687 0.294,2.687"
       id="path31"
       inkscape:connector-curvature="0"
       style="fill:#7bbbb7" /><path
       d="m 131.562,43.665 c -0.542,1.832 -1.751,2.793 -3.91,3.493 h 8.807 c 0.547,-1.399 1.097,-2.333 1.097,-4.184 v -2.913 -7.394 -1.756 c 0,-2.032 0.354,-2.639 2.232,-2.639 h 1.579 2.003 4.104 c 0.192,0 0.572,-0.318 0.572,-0.702 v -4.195 c 0,-0.384 -0.538,-0.699 -0.922,-0.699 h -3.359 -3.172 -1.774 c -4.232,0 -6.859,2.741 -6.859,6.835 v 2.196 9.146 c -0.001,0 -0.127,1.898 -0.398,2.812"
       id="path33"
       inkscape:connector-curvature="0"
       style="fill:#7bbbb7" /><path
       d="m 132.924,49.999 c 1.416,0.52 2.97,1.355 3.924,2.752 h 10.275 c 0.385,0 0.923,-0.332 0.923,-0.715 v -4.194 c 0,-0.386 -0.538,-0.687 -0.923,-0.687 h -10.664 c -0.7,1.401 -2.363,2.416 -3.535,2.844"
       id="path35"
       inkscape:connector-curvature="0"
       style="fill:#9ac9c6" /><path
       d="m 125.453,47.158 c -0.385,0 -0.489,0.301 -0.489,0.685 v 4.196 c 0,0.385 0.104,0.717 0.489,0.717 h 2.007 9.388 c -0.631,-1.4 -2.196,-2.358 -3.314,-2.793 1.172,-0.43 2.226,-1.404 2.926,-2.803 h -8.808 l -2.199,-0.002 0,0 z"
       id="path37"
       inkscape:connector-curvature="0"
       style="fill:#42a5a5" /></g><g
     id="g39"
     transform="translate(-36.833,-22.674001)"><rect
       x="161.604"
       y="49.054001"
       width="102.047"
       height="31.181"
       id="rect41"
       style="fill:#ce5a4e" /><g
       id="g43"><g
         id="g45"><defs
           id="defs47"><rect
             id="SVGID_1_"
             x="161.604"
             y="49.054001"
             width="102.047"
             height="31.181" /></defs><clipPath
           id="SVGID_2_"><use
             xlink:href="#SVGID_1_"
             overflow="visible"
             id="use51"
             style="overflow:visible"
             x="0"
             y="0"
             width="297.64099"
             height="99.209999" /></clipPath><path
           clip-path="url(#SVGID_2_)"
           d="m 244.802,64.753 c -0.104,-1.975 -1.145,-3.071 -2.879,-3.071 -1.455,0 -2.547,0.731 -3.225,1.849 V 61.83 h -1.455 v 9.213 h 1.455 v -3.326 c 0,-3.127 1.439,-4.643 2.965,-4.643 1.041,0 1.562,0.62 1.683,1.68 h 1.456 l 0,-0.001 z m -13.73,-1.681 c 1.422,0 2.34,0.842 2.6,2.303 h -5.182 c 0.293,-1.389 1.178,-2.303 2.582,-2.303 m 4.143,3.053 c 0,-2.414 -1.438,-4.442 -4.143,-4.442 -2.617,0 -4.178,2.157 -4.178,4.754 0,2.687 1.629,4.753 4.178,4.753 1.629,0 3.016,-0.641 3.971,-2.578 l -1.162,-0.64 c -0.59,1.151 -1.491,1.827 -2.809,1.827 -1.543,0 -2.603,-1.207 -2.688,-3.034 h 6.83 l 0.001,-0.64 0,0 z m -17.682,-2.907 h 2.322 v 4.771 c 0,2.137 1.059,3.198 2.965,3.198 1.092,0 1.889,-0.349 2.688,-1.188 l -0.539,-1.297 c -0.762,0.84 -1.385,1.096 -2.147,1.096 -0.971,0 -1.508,-0.586 -1.508,-1.864 v -4.716 h 4.264 V 61.83 h -4.264 V 58.1 l -1.457,0.97 v 2.76 h -2.322 l -0.002,1.388 0,0 z m -4.646,-1.536 c -1.611,0 -2.98,1.024 -2.98,2.67 0,1.81 1.352,2.34 2.824,2.669 1.387,0.311 2.254,0.566 2.254,1.354 0,0.967 -0.867,1.424 -1.855,1.424 -1.194,0 -2.026,-0.692 -2.409,-1.826 l -1.386,0.549 c 0.537,1.755 2.045,2.669 3.795,2.669 1.804,0 3.363,-1.062 3.363,-2.962 0,-1.663 -1.508,-2.157 -3.137,-2.505 -1.301,-0.272 -2.029,-0.64 -2.029,-1.427 0,-0.895 0.764,-1.223 1.508,-1.223 0.938,0 1.562,0.438 2.099,1.461 l 1.145,-0.859 c -0.661,-1.262 -1.614,-1.994 -3.192,-1.994 m -5.131,2.943 c 0,-1.771 -0.85,-2.942 -2.67,-2.942 -1.248,0 -2.34,0.786 -2.965,1.849 V 61.83 h -1.455 v 9.213 h 1.455 v -3.711 c 0,-2.687 1.197,-4.258 2.566,-4.258 1.041,0 1.61,0.602 1.61,1.881 v 6.088 h 1.457 l 0.002,-6.418 0,0 z M 195.17,59.142 c 0,0.586 0.435,1.023 0.972,1.023 0.571,0 0.987,-0.438 0.987,-1.023 0,-0.585 -0.416,-1.042 -0.987,-1.042 -0.538,0 -0.972,0.457 -0.972,1.042 m -3.19,0 c 0,0.586 0.434,1.023 0.971,1.023 0.572,0 0.988,-0.438 0.988,-1.023 0,-0.585 -0.416,-1.042 -0.988,-1.042 -0.537,0 -0.971,0.457 -0.971,1.042 m -1.023,9.104 c 0,1.772 0.851,2.942 2.67,2.942 1.248,0 2.34,-0.786 2.965,-1.849 v 1.701 h 1.455 v -9.213 h -1.455 v 3.711 c 0,2.688 -1.194,4.258 -2.565,4.258 -1.039,0 -1.611,-0.603 -1.611,-1.881 v -6.088 h -1.457 l -0.002,6.419 0,0 z m -10.506,-10 v 12.795 h 1.527 v -9.377 l 2.112,5.703 h 1.146 l 2.115,-5.703 v 9.377 h 1.524 V 58.246 h -1.629 l -2.584,7.092 -2.582,-7.092 h -1.629 z"
           id="path53"
           inkscape:connector-curvature="0"
           style="fill:#ffffff" /></g></g></g></svg>